# xmcd CD database file
# Copyright (C) 1997 Ti Kan
#
# Track frame offsets:
#  150
#  12945
#  31570
#  58665
#  81467
#  96857
#  133222
#
# Disc length: 2184 seconds
#
# Revision: 1
# Processed by: cddbd v1.4b41PL1 Copyright (c) Steve Scherf et al.
# Submitted via: CDWizzard Release:4.32
#
DISCID=54088607
DTITLE=Barry White - The Songs I Sing
DYEAR=1900
DGENRE=
TTITLE0=I Love To Sing The Songs I Sing
TTITLE1=Girl, What's Your Name
TTITLE2=Once Upon A Time (You Were A Friend Of Mine)
TTITLE3=Oh Me, Oh My (I'm Such A Lucky Guy)
TTITLE4=I Can't Leave You Alone
TTITLE5=Call Me, Baby
TTITLE6=How Did You Know It Was Me?
EXTD=
EXTT0=
EXTT1=
EXTT2=
EXTT3=
EXTT4=
EXTT5=
EXTT6=
PLAYORDER=
